<?xml version="1.0" encoding="UTF-8"?>
<svg id="Layer_1" xmlns="http://www.w3.org/2000/svg" version="1.1" viewBox="0 0 24 24">
  <!-- Generator: Adobe Illustrator 29.7.1, SVG Export Plug-In . SVG Version: 2.1.1 Build 8)  -->
  <defs>
    <style>
      .st0 {
        fill: #6b7280;
      }
    </style>
  </defs>
  <path class="st0" d="M19,21.8H5c-1.5,0-2.8-1.2-2.8-2.8V5c0-1.5,1.2-2.8,2.8-2.8h14c1.5,0,2.8,1.2,2.8,2.8v14c0,1.5-1.2,2.8-2.8,2.8ZM5,3.8c-.7,0-1.2.6-1.2,1.2v14c0,.7.6,1.2,1.2,1.2h14c.7,0,1.2-.6,1.2-1.2V5c0-.7-.6-1.2-1.2-1.2H5ZM10,9h4c.6,0,1,.4,1,1v4c0,.6-.4,1-1,1h-4c-.6,0-1-.4-1-1v-4c0-.6.4-1,1-1ZM12.8,7v-.3c.3,0,.6,0,.8-.2.3-.3.3-.8,0-1.1l-1-1c0,0-.2-.1-.2-.2-.2,0-.4,0-.6,0,0,0-.2,0-.2.2l-1,1c-.3.3-.3.8,0,1.1s.5.3.8.2v.3c0,.4.3.8.8.8s.8-.3.8-.8ZM12.3,19.7c0,0,.2,0,.2-.2l1-1c.3-.3.3-.8,0-1.1s-.5-.3-.8-.2v-.3c0-.4-.3-.8-.8-.8s-.8.3-.8.8v.3c-.3,0-.6,0-.8.2s-.3.8,0,1.1l1,1c0,0,.2.1.2.2,0,0,.2,0,.3,0s.2,0,.3,0ZM6.5,13.5c.2-.2.3-.5.2-.8h.3c.4,0,.8-.3.8-.8s-.3-.8-.8-.8h-.3c0-.3,0-.6-.2-.8s-.8-.3-1.1,0l-1,1c0,0-.1.2-.2.2,0,0,0,.2,0,.3s0,.2,0,.3c0,0,0,.2.2.2l1,1c.1.1.3.2.5.2s.4,0,.5-.2ZM18.5,13.5l1-1c0,0,.1-.2.2-.2,0,0,0-.2,0-.3s0-.2,0-.3c0,0,0-.2-.2-.2l-1-1c-.3-.3-.8-.3-1.1,0s-.3.5-.2.8h-.3c-.4,0-.8.3-.8.8s.3.8.8.8h.3c0,.3,0,.6.2.8s.3.2.5.2.4,0,.5-.2Z"/>
</svg>