<svg width="24" height="24" viewBox="0 0 24 24" fill="none" xmlns="http://www.w3.org/2000/svg">
  <!-- Container outline -->
  <rect x="3" y="3" width="18" height="18" fill="none" stroke="#6b7280" stroke-width="1.5" rx="2"/>
  
  <!-- Content box in center -->
  <rect x="9" y="9" width="6" height="6" fill="#3b82f6" rx="1"/>
  
  <!-- Directional arrows -->
  <!-- Up arrow -->
  <path d="M12 7L12 5M12 5L11 6M12 5L13 6" stroke="#6b7280" stroke-width="1.5" fill="none" stroke-linecap="round" stroke-linejoin="round"/>
  
  <!-- Down arrow -->
  <path d="M12 17L12 19M12 19L11 18M12 19L13 18" stroke="#6b7280" stroke-width="1.5" fill="none" stroke-linecap="round" stroke-linejoin="round"/>
  
  <!-- Left arrow -->
  <path d="M7 12L5 12M5 12L6 11M5 12L6 13" stroke="#6b7280" stroke-width="1.5" fill="none" stroke-linecap="round" stroke-linejoin="round"/>
  
  <!-- Right arrow -->
  <path d="M17 12L19 12M19 12L18 11M19 12L18 13" stroke="#6b7280" stroke-width="1.5" fill="none" stroke-linecap="round" stroke-linejoin="round"/>
</svg>