<?xml version="1.0" encoding="UTF-8"?>
<svg id="Layer_1" xmlns="http://www.w3.org/2000/svg" version="1.1" viewBox="0 0 24 24">
  <!-- Generator: Adobe Illustrator 29.7.1, SVG Export Plug-In . SVG Version: 2.1.1 Build 8)  -->
  <path d="M19,2H5c-1.7,0-3,1.3-3,3v14c0,1.7,1.3,3,3,3h14c1.7,0,3-1.3,3-3V5c0-1.7-1.3-3-3-3ZM4,19V5c0-.6.4-1,1-1h14c.6,0,1,.4,1,1v7.6l-1.4-1.4c-1.2-1.2-3.1-1.2-4.2,0l-8.8,8.8h-.6c-.6,0-1-.4-1-1ZM19,20h-10.6l7.4-7.4c.4-.4,1-.4,1.4,0l2.8,2.8v3.6c0,.6-.4,1-1,1ZM9,12c1.7,0,3-1.3,3-3s-1.3-3-3-3-3,1.3-3,3,1.3,3,3,3ZM9,8c.6,0,1,.4,1,1s-.4,1-1,1-1-.4-1-1,.4-1,1-1Z"/>
</svg>