<?xml version="1.0" encoding="UTF-8"?>
<svg id="Layer_1" xmlns="http://www.w3.org/2000/svg" version="1.1" viewBox="0 0 24 24">
  <!-- Generator: Adobe Illustrator 29.7.1, SVG Export Plug-In . SVG Version: 2.1.1 Build 8)  -->
  <path d="M13.5,6c.3,0,.5.2.5.5s-.2.5-.5.5-.5-.2-.5-.5.2-.5.5-.5ZM13.5,8c-.8,0-1.5-.7-1.5-1.5s.7-1.5,1.5-1.5,1.5.7,1.5,1.5-.7,1.5-1.5,1.5ZM13.5,6c-.3,0-.5.2-.5.5s.2.5.5.5.5-.2.5-.5-.2-.5-.5-.5ZM17.5,10c.3,0,.5.2.5.5s-.2.5-.5.5-.5-.2-.5-.5.2-.5.5-.5ZM17.5,12c-.8,0-1.5-.7-1.5-1.5s.7-1.5,1.5-1.5,1.5.7,1.5,1.5-.7,1.5-1.5,1.5ZM17.5,10c-.3,0-.5.2-.5.5s.2.5.5.5.5-.2.5-.5-.2-.5-.5-.5ZM8.5,7c.3,0,.5.2.5.5s-.2.5-.5.5-.5-.2-.5-.5.2-.5.5-.5ZM8.5,9c-.8,0-1.5-.7-1.5-1.5s.7-1.5,1.5-1.5,1.5.7,1.5,1.5-.7,1.5-1.5,1.5ZM8.5,7c-.3,0-.5.2-.5.5s.2.5.5.5.5-.2.5-.5-.2-.5-.5-.5ZM6.5,12c.3,0,.5.2.5.5s-.2.5-.5.5-.5-.2-.5-.5.2-.5.5-.5ZM6.5,14c-.8,0-1.5-.7-1.5-1.5s.7-1.5,1.5-1.5,1.5.7,1.5,1.5-.7,1.5-1.5,1.5ZM6.5,12c-.3,0-.5.2-.5.5s.2.5.5.5.5-.2.5-.5-.2-.5-.5-.5ZM12,23c-6.1,0-11-4.9-11-11S5.9,1,12,1s11,4.4,11,9.8c0,3.6-2.9,6.6-6.6,6.6h-2c-.2,0-.4,0-.5.2-.1.1-.2.3-.2.5,0,.3,0,.4.1.4.5.5.7,1.2.7,1.8,0,1.5-1.2,2.7-2.6,2.7ZM12,3C7,3,3,7,3,12s4,9,9,9,.6-.3.6-.7,0-.3-.2-.5c-.4-.4-.7-1.1-.7-1.8,0-.7.3-1.4.7-1.9.5-.5,1.1-.8,1.9-.8h2.1c2.5,0,4.6-2,4.6-4.6,0-4.2-4.1-7.8-9-7.8Z"/>
</svg>