<?xml version="1.0" encoding="UTF-8"?>
<svg id="Layer_1" xmlns="http://www.w3.org/2000/svg" version="1.1" viewBox="0 0 24 24">
  <!-- Generator: Adobe Illustrator 29.7.1, SVG Export Plug-In . SVG Version: 2.1.1 Build 8)  -->
  <path d="M21.5,6.4c-.3,0-.5,0-.8.2l-3.7,2.2v-.8c0-1.7-1.3-3-3-3H4c-1.7,0-3,1.3-3,3v8c0,1.7,1.3,3,3,3h10c1.7,0,3-1.3,3-3v-1.1l3.7,2.4c.3.2.5.2.8.2.5,0,1-.2,1.3-.7.2-.2.3-.5.3-.8V7.9c0-.8-.7-1.5-1.5-1.5ZM15,16c0,.6-.4,1-1,1H4c-.6,0-1-.4-1-1v-8c0-.6.4-1,1-1h10c.6,0,1,.4,1,1v8ZM21,15.1l-4-2.7v-1.4l4-2.3v6.4Z"/>
</svg>